<svg width="79" height="79" viewBox="0 0 79 79" fill="none" xmlns="http://www.w3.org/2000/svg">
<rect opacity="0.1" width="79" height="79" rx="15" fill="#161C2D"/>
<path d="M47.641 32.359C45.526 30.253 42.763 29.2 40 29.2V40L32.359 47.641C36.58 51.862 43.411 51.862 47.632 47.641C51.853 43.42 51.853 36.58 47.641 32.359Z" fill="#161C2D"/>
<path opacity="0.5" d="M40 22C49.945 22 58 30.055 58 40C58 49.936 49.945 58 40 58C30.055 58 22 49.945 22 40C22 30.055 30.055 22 40 22ZM40 25.5996C32.044 25.5996 25.5996 32.044 25.5996 40C25.5996 47.956 32.044 54.4004 40 54.4004C47.956 54.4004 54.4004 47.956 54.4004 40C54.4004 32.044 47.956 25.5996 40 25.5996Z" fill="#161C2D"/>
</svg>
