<svg width="106" height="135" viewBox="0 0 106 135" fill="none" xmlns="http://www.w3.org/2000/svg">
<path d="M78.8977 26.3964C77.6827 25.0192 77.6827 22.792 78.8977 21.4148L80.3772 19.7442C81.597 18.3724 83.5695 18.3724 84.7893 19.7442C85.9997 21.1219 85.9997 23.3439 84.7893 24.7216L83.306 26.3964C82.0858 27.763 80.1178 27.763 78.8977 26.3964Z" fill="#83FFA3"/>
<path opacity="0.4" d="M78.8977 26.3964C77.6827 25.0192 77.6827 22.792 78.8977 21.4148L80.3772 19.7442C81.597 18.3724 83.5695 18.3724 84.7893 19.7442C85.9997 21.1219 85.9997 23.3439 84.7893 24.7216L83.306 26.3964C82.0858 27.763 80.1178 27.763 78.8977 26.3964Z" fill="white"/>
<path d="M80.9805 24.0576C79.4119 22.2821 79.4119 19.408 80.9805 17.6325L83.8789 14.3599C85.4514 12.5888 87.9969 12.5888 89.5694 14.3599C91.1401 16.1345 91.1401 19.0105 89.5694 20.7851L86.6634 24.0576C85.0901 25.8184 82.5539 25.8184 80.9805 24.0576Z" fill="#83FFA3"/>
<path d="M85.0208 19.4787C82.3391 16.4663 78.0057 16.4663 75.324 19.4787L85.0208 30.4314C87.6871 27.4011 87.6871 22.5089 85.0208 19.4787Z" fill="#83FFA3"/>
<path d="M88.9548 40.7159C88.63 40.7159 88.3668 40.4186 88.3668 40.052C88.3668 39.6853 88.63 39.388 88.9548 39.388C94.8214 39.388 99.5772 34.0183 99.5772 27.3944C99.5772 20.7705 94.8214 15.4008 88.9548 15.4008C88.7341 15.4209 88.5222 15.2993 88.4064 15.0863C88.2906 14.8732 88.2906 14.6048 88.4064 14.3918C88.5222 14.1787 88.7341 14.0572 88.9548 14.0772C93.2197 13.9909 97.1938 16.5105 99.3487 20.667C101.503 24.8235 101.503 29.9696 99.3487 34.1261C97.1938 38.2827 93.2197 40.8022 88.9548 40.7159Z" fill="#83FFA3"/>
<path fill-rule="evenodd" clip-rule="evenodd" d="M89.835 58.9034L103.257 130.865L103.921 130.844L103.796 132.908H73.1503L73.302 130.377H75.3696L75.343 130.844H84.6035L95.0096 96.8075L88.0406 59.4559L89.835 58.9034ZM101.36 130.865L95.2903 98.2553L85.3053 130.865H101.36Z" fill="#83FFA3"/>
<path fill-rule="evenodd" clip-rule="evenodd" d="M23.0164 58.9248L36.4234 130.865H37.0873L36.9621 132.93H6.32028L6.46824 130.398H8.5396L8.50925 130.865H17.7811L28.1872 96.8289L21.222 59.4774L23.0164 58.9248ZM34.5265 130.865L28.4566 98.2553L18.4639 130.865H34.5265Z" fill="#83FFA3"/>
<path d="M95.958 94.64L94.2319 100.281H27.5651L29.2874 94.64H95.958Z" fill="#83FFA3"/>
<path d="M93.3328 98.8935L94.2319 100.281H27.5651L26.666 98.8935H93.3328Z" fill="#83FFA3"/>
<path opacity="0.2" d="M93.3328 98.8935L94.2319 100.281H27.5651L26.666 98.8935H93.3328Z" fill="black"/>
<path d="M82.608 85.9404H1.17987L3.05176e-05 84.6125L104.824 34.2651L106 35.5929L82.608 85.9404Z" fill="#83FFA3"/>
<path opacity="0.4" d="M82.608 85.9404H1.17987L3.05176e-05 84.6125L104.824 34.2651L106 35.5929L82.608 85.9404Z" fill="black"/>
<path d="M11.5392 56.5521L13.7987 51.6845L14.1347 51.8834L11.8752 56.751L11.5392 56.5521Z" fill="#83FFA3"/>
<path d="M9.72074 60.4649L10.795 58.1506L11.131 58.3495L10.0568 60.6638L9.72074 60.4649Z" fill="#83FFA3"/>
<path d="M81.4282 84.6125H3.05176e-05L23.3958 34.2651H104.824L81.4282 84.6125Z" fill="#83FFA3"/>
<path opacity="0.3" d="M73.2413 76.5382L15.6111 76.7695L32.66 40.763C46.3174 41.8681 66.773 41.9709 89.1483 41.4698L73.2413 76.5382Z" fill="black"/>
<path d="M72.4104 76.7696H15.2848L31.6964 41.4484C49.2916 42.1851 68.1349 41.714 88.4313 41.08C85.2863 49.981 79.5806 62.8955 72.4104 76.7696Z" fill="white"/>
<g opacity="0.6">
<path d="M25.3456 72.606C30.7149 72.5718 36.0843 72.5432 41.4537 72.5204L58.734 72.4304L67.4102 72.3833C67.4819 72.3702 67.5346 72.3003 67.5346 72.2184C67.5346 72.1364 67.4819 72.0666 67.4102 72.0535L51.3021 72.1391L34.0218 72.2248L25.3456 72.2719C25.2639 72.2719 25.1976 72.3467 25.1976 72.439C25.1976 72.5312 25.2639 72.606 25.3456 72.606Z" fill="#83FFA3"/>
<path d="M66.7009 72.9273C70.1431 65.5313 73.6168 58.1524 77.1222 50.7906C78.1339 48.6717 79.1455 46.5528 80.1572 44.4339C80.2482 44.2455 79.9941 44.0784 79.903 44.2626C76.3622 51.6215 72.8631 59.0005 69.4058 66.3994C68.4119 68.5211 67.423 70.6414 66.4391 72.7603C66.3519 72.9488 66.6023 73.1158 66.6933 72.9273H66.7009Z" fill="#83FFA3"/>
<path d="M80.3317 44.5881C74.937 44.6224 69.5436 44.651 64.1515 44.6738L46.6663 44.7638L38.0167 44.8109C37.935 44.8109 37.8687 44.8857 37.8687 44.9779C37.8687 45.0702 37.935 45.145 38.0167 45.145C43.4113 45.1107 48.8047 45.0822 54.1968 45.0593L71.682 44.9694L80.3317 44.9222C80.4134 44.9222 80.4796 44.8474 80.4796 44.7552C80.4796 44.6629 80.4134 44.5881 80.3317 44.5881Z" fill="#83FFA3"/>
<path d="M39.0372 43.9884C35.5621 51.4673 32.0504 58.9276 28.502 66.3694C27.4904 68.5025 26.4711 70.6328 25.4443 72.7602C25.3533 72.9487 25.6074 73.1158 25.6985 72.9273C29.2696 65.5027 32.8104 58.0438 36.3209 50.5507C37.3174 48.4204 38.3113 46.2886 39.3027 44.1555C39.3938 43.967 39.1396 43.8 39.0486 43.9884H39.0372Z" fill="#83FFA3"/>
<path d="M44.7809 69.0337L50.7105 55.8321L52.3076 52.2854C52.3949 52.097 52.1407 51.9256 52.0534 52.1184L45.9342 65.6969L44.5115 68.8452C44.4281 69.0379 44.6822 69.205 44.7657 69.0122L44.7809 69.0337Z" fill="#83FFA3"/>
<path d="M30.7062 69.0893L34.1205 61.5077C34.204 61.3149 33.9498 61.1479 33.8664 61.3363L30.452 68.9223C30.3686 69.115 30.6227 69.2821 30.7062 69.0893Z" fill="#83FFA3"/>
<path d="M64.3678 69.0337C67.2093 63.2468 69.7169 57.2585 72.4104 51.3817C73.0705 49.9424 73.7382 48.5032 74.4363 47.0982C74.5273 46.9098 74.2731 46.7427 74.1821 46.9312C71.3406 52.7138 68.8292 58.7063 66.1394 64.5789C65.4793 66.0224 64.8116 67.4574 64.1136 68.8624C64.0225 69.0465 64.2729 69.2179 64.3678 69.0294V69.0337Z" fill="#83FFA3"/>
<path d="M48.7794 68.9909C51.3591 63.2639 53.9654 57.5455 56.5375 51.8143L57.4101 49.8696L57.8805 48.8202L58.1119 48.2976C58.1764 48.1562 58.2751 47.7622 58.4041 47.6851C58.5941 47.655 58.7869 47.655 58.9769 47.6851H59.7015H61.2531C63.5622 47.6594 65.8701 47.6379 68.1766 47.6208C70.5098 47.6208 72.8391 47.5994 75.1722 47.6465C75.2439 47.6334 75.2966 47.5636 75.2966 47.4816C75.2966 47.3996 75.2439 47.3298 75.1722 47.3167C69.5462 47.2053 63.9163 47.3167 58.294 47.3895C58.2413 47.3887 58.1921 47.4197 58.1651 47.4709C54.9859 54.6199 51.7385 61.7304 48.5252 68.8581C48.438 69.0508 48.6922 69.2179 48.7794 69.0251V68.9909Z" fill="#83FFA3"/>
<path d="M64.3905 68.9095C63.0058 63.2767 61.3556 57.7297 59.7698 52.1698C59.3221 50.6049 58.877 49.0415 58.4344 47.4795C58.3775 47.2738 58.093 47.3595 58.1499 47.5651C59.7546 53.2664 61.439 58.9419 62.9831 64.6646C63.3624 66.1038 63.7418 67.5473 64.1212 68.9994C64.1464 69.0834 64.2255 69.1305 64.3012 69.1066C64.3768 69.0826 64.4227 68.9961 64.4057 68.9095H64.3905Z" fill="#83FFA3"/>
<path d="M74.3566 47.3295C71.223 50.3279 67.8618 52.9837 64.5119 55.648C60.8851 58.5307 57.228 61.3621 53.6657 64.339C51.9054 65.8083 50.1641 67.3118 48.4949 68.9095C48.3507 69.0465 48.5594 69.2821 48.7035 69.1451C51.8978 66.091 55.3198 63.3496 58.7379 60.6253C62.3381 57.7554 65.9763 54.9412 69.5272 51.9899C71.242 50.5678 72.9415 49.1114 74.5653 47.5651C74.7094 47.4238 74.5008 47.1925 74.3566 47.3295Z" fill="#83FFA3"/>
<path d="M48.2293 68.9437C52.5693 69.0851 56.9093 69.1408 61.2493 69.145C62.2964 69.145 63.3472 69.145 64.3943 69.1193C64.466 69.1063 64.5186 69.0364 64.5186 68.9544C64.5186 68.8725 64.466 68.8026 64.3943 68.7895C60.0429 68.8837 55.6688 68.7895 51.3288 68.6953C50.2969 68.6696 49.2612 68.6482 48.2293 68.6139C48.1577 68.627 48.105 68.6968 48.105 68.7788C48.105 68.8608 48.1577 68.9306 48.2293 68.9437Z" fill="#83FFA3"/>
<path d="M42.2125 69.1451C44.9781 63.3324 47.5237 57.3999 50.2059 51.5316C50.866 50.0809 51.5362 48.636 52.2165 47.1967C52.3038 47.0083 52.0496 46.8412 51.9623 47.0297C49.1967 52.8423 46.6512 58.7749 43.969 64.6432C43.3089 66.0952 42.645 67.5431 41.9583 68.978C41.8711 69.1665 42.1253 69.3335 42.2125 69.1451Z" fill="#83FFA3"/>
<path d="M34.0446 69.0722C35.7746 65.2342 37.507 61.3977 39.242 57.5626C40.107 55.6436 40.972 53.7247 41.8369 51.8057C42.2618 50.8676 42.6829 49.9253 43.104 48.9872C43.2406 48.6788 43.4492 47.8992 43.7452 47.7664C43.9966 47.7221 44.2525 47.7221 44.5039 47.7664H45.3461C47.5465 47.7236 49.7506 47.6764 51.9547 47.7664C52.1406 47.7664 52.1406 47.4409 51.9547 47.4323C49.1588 47.3338 46.3628 47.4323 43.5706 47.4794C43.5179 47.4786 43.4687 47.5096 43.4417 47.5608C40.2512 54.7013 37.0151 61.8203 33.8018 68.948C33.7146 69.1364 33.9688 69.3078 34.056 69.115L34.0446 69.0722Z" fill="#83FFA3"/>
<path d="M42.2353 69.0637C42.8006 61.9146 43.1192 54.7484 43.7035 47.6037C43.7224 47.3895 43.4303 47.3895 43.4114 47.6037C42.8271 54.7484 42.5084 61.9146 41.9394 69.0637C41.9394 69.2736 42.2163 69.2736 42.2353 69.0637Z" fill="#83FFA3"/>
<path d="M51.9965 47.4366C47.2923 53.1679 42.406 58.7021 37.6297 64.3519C36.3272 65.8854 35.0374 67.4317 33.7602 68.9909C33.6312 69.1451 33.8398 69.3806 33.9688 69.2222C38.6996 63.4395 43.6238 57.8582 48.4456 52.1698C49.7102 50.6792 50.9634 49.18 52.2052 47.6722C52.3342 47.518 52.1255 47.2824 51.9965 47.4366Z" fill="#83FFA3"/>
<path d="M33.6805 69.0337C36.4764 69.1879 39.2876 69.325 42.0873 69.235C42.277 69.235 42.277 68.8966 42.0873 68.9052C39.2876 68.9908 36.4764 68.8581 33.6805 68.7039C33.4908 68.7039 33.4908 69.0251 33.6805 69.0337Z" fill="#83FFA3"/>
<path d="M38.1912 49.3598C38.0494 49.6245 38.0071 49.9422 38.0736 50.2422C38.1455 50.4971 38.3293 50.6916 38.5592 50.7562C39.1215 50.86 39.6954 50.6729 40.1222 50.2465C40.5665 49.8804 40.8176 49.2862 40.7899 48.6659C40.7252 48.1451 40.3136 47.7703 39.849 47.8092C39.5248 47.8509 39.2246 48.0227 39.003 48.2933C38.88 48.4214 38.7635 48.5573 38.654 48.7002C38.5487 48.8195 38.4717 48.9668 38.4302 49.1285C38.3961 49.3384 38.6806 49.4284 38.7147 49.2185C38.7489 49.0086 38.9613 48.7901 39.0941 48.6402C39.2431 48.451 39.4235 48.2968 39.6252 48.1862C39.7863 48.1049 39.9705 48.1052 40.1314 48.1871C40.2923 48.2689 40.4146 48.4244 40.4674 48.6145C40.5332 49.0691 40.3903 49.5303 40.088 49.8396C39.7673 50.2166 39.3355 50.4482 38.8741 50.4907C38.6849 50.521 38.4953 50.4383 38.3733 50.2722C38.2774 50.0391 38.2961 49.7663 38.4226 49.5526C38.5099 49.3641 38.2557 49.1971 38.1684 49.3855L38.1912 49.3598Z" fill="#83FFA3"/>
</g>
<path opacity="0.2" d="M104.824 34.2651L81.4396 84.6125H3.05176e-05L23.3958 34.2651H46.7385L34.8414 40.4204H34.8149C28.745 42.9176 23.8928 46.7427 21.4117 51.5187C15.7212 62.4586 24.6629 74.2209 41.3666 77.8276C58.0703 81.4342 76.2118 75.4546 81.891 64.5147C83.0762 62.3274 83.6671 59.7956 83.5906 57.2328L84.816 34.2394L104.824 34.2651Z" fill="black"/>
<path d="M31.0254 25.8046C30.0396 27.7604 29.0385 29.789 28.0832 31.7962C27.1278 33.8033 26.1801 35.8276 25.396 37.8476C25.1904 38.3526 25.0154 38.8533 24.8327 39.354C24.8136 39.4011 24.8327 39.354 24.8327 39.354C24.8327 39.354 24.8327 39.3883 24.8098 39.4225C24.7964 39.5504 24.7964 39.6797 24.8098 39.8077C24.8805 40.2245 24.9968 40.6299 25.1562 41.0145C25.3313 41.4425 25.5368 41.9175 25.769 42.3755C26.7931 44.2808 27.9299 46.1066 29.1718 47.8406L27.6873 49.6166C25.9207 48.1601 24.3292 46.4526 22.9524 44.5367C22.154 43.4549 21.5363 42.2196 21.1292 40.8904C21.0086 40.4553 20.9345 40.0057 20.9084 39.5509C20.8956 39.2825 20.9032 39.0133 20.9313 38.7463C20.9444 38.6025 20.9647 38.4596 20.9922 38.3184C20.9922 38.2456 21.0264 38.1686 21.0417 38.0958L21.0911 37.9032C21.2662 37.3126 21.4337 36.7135 21.624 36.14C22.3699 33.8912 23.2211 31.6884 24.1742 29.5408C25.1295 27.401 26.123 25.351 27.2192 23.2882L31.0254 25.8046Z" fill="#FFC3BD"/>
<path d="M28.6198 47.2756L30.6447 48.0203L28.9433 51.2472C28.9433 51.2472 27.4513 50.4897 27.1544 48.9533L28.6198 47.2756Z" fill="#FFC3BD"/>
<path d="M33.4156 49.27L31.4402 51.7565L28.9471 51.2515L30.6485 48.0246L33.4156 49.27Z" fill="#FFC3BD"/>
<path d="M42.8551 10.7874C42.798 11.0399 42.8551 11.2795 43.0188 11.3223C43.1824 11.3651 43.3309 11.1939 43.3994 10.9414C43.4679 10.6889 43.3994 10.445 43.2357 10.4022C43.072 10.3594 42.9122 10.5306 42.8551 10.7874Z" fill="#263238"/>
<path d="M42.8513 11.2752C42.9435 12.1273 43.1395 12.9611 43.4337 13.7531C43.0612 13.9181 42.6428 13.8883 42.2918 13.6718L42.8513 11.2752Z" fill="#ED847E"/>
<path d="M42.3527 9.13965C42.3027 9.11516 42.2704 9.05971 42.2704 8.99842C42.2704 8.93714 42.3027 8.88169 42.3527 8.8572C42.759 8.66436 43.2233 8.70587 43.5973 8.96847C43.6579 9.01986 43.6729 9.11514 43.6316 9.18673C43.5872 9.25485 43.5024 9.27012 43.4413 9.22097C43.1414 9.01865 42.7735 8.99001 42.4517 9.14393C42.4195 9.15732 42.3839 9.15578 42.3527 9.13965Z" fill="#263238"/>
<path d="M35.0942 11.7802C35.5091 14.1554 35.924 18.5078 34.4434 20.0913C34.4434 20.0913 35.0219 22.505 38.9461 22.505C43.2662 22.505 41.0129 20.0913 41.0129 20.0913C38.653 19.4622 38.7292 17.4935 39.1098 15.649L35.0942 11.7802Z" fill="#FFC3BD"/>
<path d="M33.7202 21.3153C33.5185 20.0314 33.2939 18.5763 34.0399 18.204C34.8583 17.776 39.1593 17.7503 40.5486 18.8288C41.9378 19.9073 41.3098 22.3895 41.3098 22.3895L33.7202 21.3153Z" fill="#263238"/>
<path opacity="0.6" d="M33.7202 21.3153C33.5185 20.0314 33.2939 18.5763 34.0399 18.204C34.8583 17.776 39.1593 17.7503 40.5486 18.8288C41.9378 19.9073 41.3098 22.3895 41.3098 22.3895L33.7202 21.3153Z" fill="#83FFA3"/>
<path fill-rule="evenodd" clip-rule="evenodd" d="M20.6572 130.518C20.4324 130.699 20.1729 130.722 19.9379 130.581C19.6911 130.494 19.451 130.361 19.2223 130.185C19.197 130.169 19.1803 130.129 19.1804 130.085C19.1829 130.039 19.2006 130 19.2261 129.984C19.2642 129.953 20.1662 129.349 20.5469 129.657C20.633 129.72 20.6983 129.841 20.7257 129.99C20.7747 130.172 20.747 130.386 20.6572 130.518ZM20.4898 129.864L20.4098 129.82V129.852C20.0758 129.81 19.7403 129.891 19.4278 130.091C19.8389 130.342 20.4136 130.563 20.5697 130.342C20.5925 130.324 20.6306 130.261 20.5925 130.059C20.5772 129.973 20.5397 129.901 20.4898 129.864Z" fill="#83FFA3"/>
<path fill-rule="evenodd" clip-rule="evenodd" d="M19.2565 129.997H19.2261C19.2135 129.995 19.2017 129.989 19.1918 129.98C19.1732 129.96 19.1659 129.931 19.1728 129.903C19.1732 129.902 19.1738 129.899 19.1747 129.896C19.2005 129.807 19.444 128.958 19.8122 128.743C19.9061 128.687 20.0165 128.678 20.1167 128.717C20.2206 128.742 20.2941 128.846 20.2918 128.966C20.2842 129.334 19.5839 129.89 19.2565 129.997ZM20.0711 128.846H20.052C19.9937 128.828 19.9317 128.834 19.8769 128.863C19.6238 129.102 19.4407 129.421 19.3517 129.779C19.6904 129.599 20.1548 129.163 20.1548 128.944C20.1548 128.923 20.1548 128.876 20.0711 128.846Z" fill="#83FFA3"/>
<path fill-rule="evenodd" clip-rule="evenodd" d="M42.0862 131.826C41.9644 132.086 41.6181 132.17 41.2374 132.17C40.9452 132.166 40.6537 132.123 40.3658 132.043C40.3384 132.032 40.3176 131.997 40.3125 131.953C40.3072 131.907 40.321 131.861 40.3468 131.839C40.381 131.802 41.3897 130.892 41.8693 131.097C41.9606 131.13 42.0391 131.222 42.0862 131.35C42.1504 131.493 42.1504 131.684 42.0862 131.826ZM41.8274 131.284C41.7832 131.274 41.7384 131.274 41.6942 131.284H41.6828C41.2875 131.359 40.9051 131.553 40.5561 131.857C41.0928 131.977 41.8236 131.971 41.9606 131.676C41.9911 131.634 42.0101 131.567 41.9606 131.435C41.931 131.358 41.8829 131.303 41.8274 131.284Z" fill="#83FFA3"/>
<path fill-rule="evenodd" clip-rule="evenodd" d="M40.3925 131.76H40.3659C40.3518 131.763 40.3373 131.762 40.324 131.756C40.3039 131.739 40.2937 131.711 40.2974 131.683C40.2974 131.649 40.3621 130.772 40.7427 130.434C40.8479 130.332 40.9856 130.284 41.1233 130.301C41.3098 130.322 41.3783 130.429 41.3783 130.515C41.4316 130.904 40.7389 131.585 40.3925 131.76ZM41.1081 130.442H41.07C40.9824 130.443 40.8977 130.478 40.8302 130.541C40.6154 130.823 40.4825 131.172 40.4496 131.542C40.8074 131.298 41.2756 130.746 41.2451 130.528C41.2449 130.527 41.2447 130.526 41.2445 130.525C41.2403 130.504 41.2277 130.442 41.1081 130.442Z" fill="#83FFA3"/>
<path d="M37.1876 131.683H40.0765L40.362 124.16H37.4769L37.1876 131.683Z" fill="#FFC3BD"/>
<path d="M16.0175 129.133L18.8379 129.822L21.6735 122.816L18.8493 122.127L16.0175 129.133Z" fill="#FFC3BD"/>
<path d="M19.1118 129.501L15.9374 128.73C15.8221 128.702 15.7049 128.768 15.6558 128.889L14.5558 131.572C14.5022 131.705 14.5055 131.858 14.5648 131.988C14.6241 132.118 14.7329 132.211 14.8603 132.24C15.9717 132.488 16.5236 132.543 17.9052 132.886C18.7654 133.096 20.7028 133.626 21.8865 133.913C23.0703 134.2 23.4814 132.92 23.0284 132.685C20.9578 131.619 20.0938 130.682 19.5305 129.809C19.4294 129.652 19.2804 129.542 19.1118 129.501Z" fill="#263238"/>
<path d="M40.0575 131.307H36.9022C36.7842 131.306 36.6822 131.399 36.6586 131.529L36.0876 134.414C36.0583 134.555 36.0885 134.704 36.1696 134.816C36.2507 134.929 36.3735 134.994 36.5025 134.991C37.6444 134.97 39.2849 134.897 40.716 134.897C42.3869 134.897 43.8295 135 45.7935 135C46.9772 135 47.316 133.652 46.8098 133.528C44.5527 132.971 42.7067 132.912 40.7541 131.559C40.5468 131.405 40.3059 131.318 40.0575 131.307Z" fill="#263238"/>
<path d="M45.8164 24.0157C46.7565 26.3995 47.7842 28.8475 48.8614 31.1884C49.398 32.3611 49.9575 33.5166 50.5361 34.6122C51.0954 35.695 51.7132 36.7383 52.3859 37.7363L52.6295 38.0787C52.6904 38.1429 52.6295 38.1129 52.7247 38.19C52.8765 38.3395 53.0395 38.474 53.2119 38.5922C53.6687 38.9055 54.1401 39.1912 54.624 39.4482C55.644 40.0003 56.7288 40.5309 57.8288 41.0316C60.025 42.0374 62.2859 43.0003 64.5316 43.9632L63.9835 46.3256C61.5468 45.8857 59.1328 45.3 56.7516 44.5709C55.5565 44.1858 54.3613 43.792 53.1548 43.287C52.52 43.0234 51.8998 42.7176 51.2973 42.3712C50.9395 42.1626 50.5971 41.9222 50.2735 41.6522C50.067 41.4776 49.8735 41.2844 49.6949 41.0744L49.3409 40.6465C48.472 39.542 47.6793 38.3645 46.9697 37.1243C46.2655 35.9303 45.6299 34.7106 45.0209 33.4781C43.8176 31.0244 42.7375 28.4969 41.7856 25.9074L45.8164 24.0157Z" fill="#FFC3BD"/>
<path d="M28.3801 20.8274C25.6738 21.525 21.1292 36.6407 21.1292 36.6407L25.552 38.2926C25.552 38.2926 30.0662 30.7733 31.6001 27.1655C33.2026 23.3524 31.151 20.1127 28.3801 20.8274Z" fill="#83FFA3"/>
<path opacity="0.5" d="M28.3801 20.8274C25.6738 21.525 21.1292 36.6407 21.1292 36.6407L25.552 38.2926C25.552 38.2926 30.0662 30.7733 31.6001 27.1655C33.2026 23.3524 31.151 20.1127 28.3801 20.8274Z" fill="black"/>
<path d="M26.3209 37.5523C26.3209 37.5523 21.9856 36.6236 20.9922 35.9303C20.6458 36.4952 20.231 38.5409 20.5126 39.1443C20.7943 39.7477 24.8327 40.6165 25.3808 40.2613C25.9289 39.9061 26.3209 37.5523 26.3209 37.5523Z" fill="#263238"/>
<path opacity="0.6" d="M26.3209 37.5523C26.3209 37.5523 21.9856 36.6236 20.9922 35.9303C20.6458 36.4952 20.231 38.5409 20.5126 39.1443C20.7943 39.7477 24.8327 40.6165 25.3808 40.2613C25.9289 39.9061 26.3209 37.5523 26.3209 37.5523Z" fill="#83FFA3"/>
<path opacity="0.3" d="M30.1347 26.1941C29.3088 27.1228 28.559 29.759 28.5361 33.11C29.4915 31.3981 30.4773 29.5622 31.1662 28.0942C30.8389 26.7718 30.4735 25.826 30.1347 26.1941Z" fill="black"/>
<path d="M44.5641 20.9943C44.5641 20.9943 47.6396 24.8974 44.7354 49.0688H29.2859C29.1794 46.4026 30.6676 33.3925 28.3801 20.8231C30.0883 20.4522 31.8162 20.2063 33.5527 20.087C35.7408 19.9457 37.9342 19.9457 40.1223 20.087C41.6216 20.259 43.1068 20.5624 44.5641 20.9943Z" fill="#83FFA3"/>
<path opacity="0.5" d="M44.5641 20.9943C44.5641 20.9943 47.6396 24.8974 44.7354 49.0688H29.2859C29.1794 46.4026 30.6676 33.3925 28.3801 20.8231C30.0883 20.4522 31.8162 20.2063 33.5527 20.087C35.7408 19.9457 37.9342 19.9457 40.1223 20.087C41.6216 20.259 43.1068 20.5624 44.5641 20.9943Z" fill="black"/>
<path opacity="0.3" d="M42.2728 28.7148C42.5658 32.2412 44.5565 36.7177 45.7212 38.7463C45.8735 36.4182 45.9534 34.3896 45.9762 32.6178L42.2728 28.7148Z" fill="black"/>
<path d="M40.7389 23.5108C38.8776 27.4694 48.5949 40.3426 48.5949 40.3426L51.99 36.4696C51.99 36.4696 47.5824 27.8033 46.5471 23.9601C45.2683 19.2097 42.1548 20.4979 40.7389 23.5108Z" fill="#83FFA3"/>
<path opacity="0.5" d="M40.7389 23.5108C38.8776 27.4694 48.5949 40.3426 48.5949 40.3426L51.99 36.4696C51.99 36.4696 47.5824 27.8033 46.5471 23.9601C45.2683 19.2097 42.1548 20.4979 40.7389 23.5108Z" fill="black"/>
<path d="M51.853 35.7035C51.853 35.7035 48.907 39.3968 47.8717 39.9831C48.1229 40.608 49.4589 42.0759 50.0717 42.123C50.6845 42.17 53.425 38.7249 53.4364 38.0145C53.4478 37.3041 51.853 35.7035 51.853 35.7035Z" fill="#263238"/>
<path opacity="0.6" d="M51.853 35.7035C51.853 35.7035 48.907 39.3968 47.8717 39.9831C48.1229 40.608 49.4589 42.0759 50.0717 42.123C50.6845 42.17 53.425 38.7249 53.4364 38.0145C53.4478 37.3041 51.853 35.7035 51.853 35.7035Z" fill="#83FFA3"/>
<path d="M63.8655 44.006L66.663 42.6494L67.5347 46.0731C67.5347 46.0731 65.3994 47.6437 63.6904 46.2699L63.8655 44.006Z" fill="#FFC3BD"/>
<path d="M69.7842 44.2713C69.6925 44.34 69.5689 44.3133 69.5063 44.2114L66.4004 39.033C66.3701 38.9839 66.3586 38.923 66.3687 38.8642C66.3787 38.8055 66.4093 38.7537 66.4537 38.7206C66.4975 38.6865 66.5516 38.6736 66.6039 38.6849C66.6561 38.6962 66.7022 38.7306 66.7316 38.7805L69.8375 43.9589C69.8678 44.0081 69.8793 44.0689 69.8692 44.1277C69.8592 44.1865 69.8286 44.2383 69.7842 44.2713Z" fill="#263238"/>
<path d="M69.6128 42.9019L70.8423 44.9475L67.5347 46.0602L66.663 42.6451L69.6128 42.9019Z" fill="#FFC3BD"/>
<path opacity="0.2" d="M40.362 124.164L40.2174 128.041H37.3246L37.4731 124.164H40.362Z" fill="black"/>
<path opacity="0.2" d="M18.8493 122.131L21.6735 122.816L20.2119 126.428L17.3877 125.739L18.8493 122.131Z" fill="black"/>
<path d="M35.452 8.07405C34.9115 11.241 34.451 13.0641 35.4863 15.067C37.043 18.0628 40.7883 17.6348 42.1586 14.7203C43.3956 12.0926 44.0617 7.35934 41.6409 5.33507C40.556 4.42227 39.1281 4.2063 37.8672 4.7643C36.6064 5.3223 35.6925 6.57469 35.452 8.07405Z" fill="#FFC3BD"/>
<path d="M34.3406 6.50766C36.3769 5.75872 40.2364 4.14529 41.5991 7.83007C42.9617 11.5149 37.4122 15.3623 36.0001 15.3665C34.8659 15.3794 32.1025 7.36359 34.3406 6.50766Z" fill="#263238"/>
<path d="M38.5807 8.0612C42.5696 10.522 46.1931 6.98272 44.5755 2.98125C42.9579 -1.02023 39.4219 -0.442474 40.5219 1.50905C41.6219 3.46057 38.5807 0.50333 36.4797 1.4149C35.0067 2.05256 36.9174 3.09252 37.0963 3.84574C37.2752 4.59896 33.2406 4.62036 32.7039 5.75019C32.1672 6.88001 34.1046 9.23382 35.098 8.86577C36.0914 8.49772 37.8765 7.62039 38.5807 8.0612Z" fill="#263238"/>
<path d="M39.734 9.95707C39.6024 10.7445 39.7068 11.5588 40.0309 12.2724C40.461 13.2053 41.207 12.9271 41.5305 12.0413C41.8236 11.241 41.9492 9.79444 41.3022 9.15677C40.6551 8.51911 39.9015 9.01127 39.734 9.95707Z" fill="#FFC3BD"/>
<path d="M39.2544 49.0688C39.2544 49.0688 35.9773 73.8908 34.1769 83.1862C32.2053 93.3718 21.6697 126.013 21.6697 126.013L16.497 124.754C16.497 124.754 24.3873 94.1935 25.5101 84.0978C26.7319 73.1547 29.2859 49.056 29.2859 49.056L39.2544 49.0688Z" fill="#263238"/>
<path d="M22.9067 124.074C22.9295 124.074 21.9437 126.175 21.9437 126.175L16.124 124.759L16.615 122.794L22.9067 124.074Z" fill="#83FFA3"/>
<path opacity="0.3" d="M37.1838 57.9106C33.3776 58.7451 33.7925 74.6398 34.2492 82.8139C35.3416 77.0364 36.944 65.9178 38.0364 58.0261C37.7719 57.8809 37.4715 57.8402 37.1838 57.9106Z" fill="black"/>
<path d="M44.7278 49.0688C44.7278 49.0688 45.1084 73.3516 44.8115 83.2547C44.4918 93.5558 41.3022 127.288 41.3022 127.288H36.3998C36.3998 127.288 36.2171 94.1593 36.0001 84.0422C35.7641 73.0135 34.5804 49.0688 34.5804 49.0688L44.7278 49.0688Z" fill="#263238"/>
<path d="M42.2347 125.097C42.2575 125.097 41.9568 127.382 41.9568 127.382H36.0039L35.8441 125.345L42.2347 125.097Z" fill="#83FFA3"/>
</svg>
