<svg width="151" height="19" viewBox="0 0 151 19" fill="none" xmlns="http://www.w3.org/2000/svg">
<path d="M1.28 18C1.104 18 0.96 17.944 0.848 17.832C0.736 17.72 0.68 17.576 0.68 17.4V1.8C0.68 1.624 0.736 1.48 0.848 1.368C0.96 1.256 1.104 1.2 1.28 1.2H8.6C9.976 1.2 11.104 1.392 11.984 1.776C12.864 2.16 13.512 2.712 13.928 3.432C14.36 4.136 14.576 4.976 14.576 5.952C14.576 6.528 14.464 7.04 14.24 7.488C14.032 7.92 13.768 8.28 13.448 8.568C13.144 8.856 12.856 9.064 12.584 9.192C13.192 9.48 13.728 9.952 14.192 10.608C14.672 11.264 14.912 12.032 14.912 12.912C14.912 13.968 14.672 14.88 14.192 15.648C13.728 16.4 13.04 16.984 12.128 17.4C11.232 17.8 10.128 18 8.816 18H1.28ZM4.976 14.88H8.336C9.024 14.88 9.544 14.68 9.896 14.28C10.248 13.88 10.424 13.424 10.424 12.912C10.424 12.352 10.24 11.88 9.872 11.496C9.52 11.112 9.008 10.92 8.336 10.92H4.976V14.88ZM4.976 7.872H8.12C8.776 7.872 9.264 7.704 9.584 7.368C9.92 7.032 10.088 6.6 10.088 6.072C10.088 5.56 9.92 5.144 9.584 4.824C9.264 4.488 8.776 4.32 8.12 4.32H4.976V7.872ZM17.7811 18C17.6051 18 17.4611 17.944 17.3491 17.832C17.2371 17.72 17.1811 17.576 17.1811 17.4V6.12C17.1811 5.96 17.2371 5.824 17.3491 5.712C17.4611 5.584 17.6051 5.52 17.7811 5.52H20.5411C20.7171 5.52 20.8611 5.584 20.9731 5.712C21.0851 5.824 21.1411 5.96 21.1411 6.12V7.08C21.5731 6.584 22.0851 6.2 22.6771 5.928C23.2851 5.656 23.9651 5.52 24.7171 5.52H25.7731C25.9331 5.52 26.0691 5.576 26.1811 5.688C26.3091 5.8 26.3731 5.944 26.3731 6.12V8.592C26.3731 8.752 26.3091 8.896 26.1811 9.024C26.0691 9.136 25.9331 9.192 25.7731 9.192H23.4451C22.7891 9.192 22.2771 9.376 21.9091 9.744C21.5571 10.096 21.3811 10.6 21.3811 11.256V17.4C21.3811 17.576 21.3171 17.72 21.1891 17.832C21.0771 17.944 20.9331 18 20.7571 18H17.7811ZM31.4793 18.24C30.6153 18.24 29.8393 18.08 29.1513 17.76C28.4793 17.424 27.9433 16.976 27.5433 16.416C27.1433 15.856 26.9433 15.224 26.9433 14.52C26.9433 13.384 27.4073 12.488 28.3353 11.832C29.2633 11.16 30.4953 10.704 32.0313 10.464L35.0313 10.008V9.672C35.0313 9.096 34.9113 8.656 34.6713 8.352C34.4313 8.048 33.9913 7.896 33.3513 7.896C32.9033 7.896 32.5353 7.984 32.2473 8.16C31.9753 8.336 31.7593 8.576 31.5993 8.88C31.4553 9.088 31.2553 9.192 30.9993 9.192H28.3113C28.1353 9.192 27.9993 9.144 27.9033 9.048C27.8073 8.936 27.7673 8.808 27.7833 8.664C27.7833 8.376 27.8873 8.048 28.0953 7.68C28.3193 7.296 28.6553 6.92 29.1033 6.552C29.5513 6.184 30.1273 5.88 30.8313 5.64C31.5353 5.4 32.3833 5.28 33.3753 5.28C34.4153 5.28 35.3033 5.4 36.0393 5.64C36.7753 5.88 37.3673 6.216 37.8153 6.648C38.2793 7.08 38.6233 7.592 38.8473 8.184C39.0713 8.76 39.1833 9.4 39.1833 10.104V17.4C39.1833 17.576 39.1193 17.72 38.9913 17.832C38.8793 17.944 38.7433 18 38.5833 18H35.7993C35.6233 18 35.4793 17.944 35.3673 17.832C35.2553 17.72 35.1993 17.576 35.1993 17.4V16.56C34.9913 16.864 34.7113 17.144 34.3593 17.4C34.0073 17.656 33.5913 17.856 33.1113 18C32.6473 18.16 32.1033 18.24 31.4793 18.24ZM32.6073 15.504C33.0713 15.504 33.4873 15.408 33.8553 15.216C34.2393 15.008 34.5353 14.696 34.7433 14.28C34.9673 13.848 35.0793 13.312 35.0793 12.672V12.336L33.0393 12.696C32.2873 12.824 31.7353 13.024 31.3833 13.296C31.0473 13.552 30.8793 13.856 30.8793 14.208C30.8793 14.48 30.9593 14.712 31.1193 14.904C31.2793 15.096 31.4873 15.248 31.7433 15.36C31.9993 15.456 32.2873 15.504 32.6073 15.504ZM42.3582 18C42.1822 18 42.0382 17.944 41.9262 17.832C41.8142 17.72 41.7582 17.576 41.7582 17.4V6.12C41.7582 5.944 41.8142 5.8 41.9262 5.688C42.0382 5.576 42.1822 5.52 42.3582 5.52H45.1902C45.3502 5.52 45.4862 5.576 45.5982 5.688C45.7262 5.8 45.7902 5.944 45.7902 6.12V17.4C45.7902 17.576 45.7262 17.72 45.5982 17.832C45.4862 17.944 45.3502 18 45.1902 18H42.3582ZM42.3342 3.72C42.1582 3.72 42.0142 3.664 41.9022 3.552C41.7902 3.44 41.7342 3.296 41.7342 3.12V0.983999C41.7342 0.807999 41.7902 0.663999 41.9022 0.551999C42.0142 0.423999 42.1582 0.36 42.3342 0.36H45.1902C45.3662 0.36 45.5102 0.423999 45.6222 0.551999C45.7502 0.663999 45.8142 0.807999 45.8142 0.983999V3.12C45.8142 3.296 45.7502 3.44 45.6222 3.552C45.5102 3.664 45.3662 3.72 45.1902 3.72H42.3342ZM49.0686 18C48.8926 18 48.7486 17.944 48.6366 17.832C48.5246 17.72 48.4686 17.576 48.4686 17.4V6.12C48.4686 5.944 48.5246 5.8 48.6366 5.688C48.7486 5.576 48.8926 5.52 49.0686 5.52H51.8286C52.0046 5.52 52.1486 5.576 52.2606 5.688C52.3726 5.8 52.4286 5.944 52.4286 6.12V7.032C52.8446 6.536 53.3886 6.12 54.0606 5.784C54.7326 5.448 55.5246 5.28 56.4366 5.28C57.3646 5.28 58.1806 5.488 58.8846 5.904C59.6046 6.32 60.1646 6.936 60.5646 7.752C60.9806 8.552 61.1886 9.536 61.1886 10.704V17.4C61.1886 17.576 61.1246 17.72 60.9966 17.832C60.8846 17.944 60.7486 18 60.5886 18H57.5646C57.4046 18 57.2606 17.944 57.1326 17.832C57.0206 17.72 56.9646 17.576 56.9646 17.4V10.848C56.9646 10.096 56.7806 9.52 56.4126 9.12C56.0606 8.704 55.5326 8.496 54.8286 8.496C54.1726 8.496 53.6446 8.704 53.2446 9.12C52.8606 9.52 52.6686 10.096 52.6686 10.848V17.4C52.6686 17.576 52.6046 17.72 52.4766 17.832C52.3646 17.944 52.2286 18 52.0686 18H49.0686ZM67.0028 18C66.7628 18 66.5868 17.944 66.4748 17.832C66.3628 17.72 66.2748 17.576 66.2108 17.4L62.7548 6.288C62.7228 6.208 62.7068 6.128 62.7068 6.048C62.7068 5.904 62.7628 5.784 62.8748 5.688C62.9868 5.576 63.1148 5.52 63.2588 5.52H65.7308C65.9388 5.52 66.0988 5.576 66.2108 5.688C66.3388 5.8 66.4188 5.912 66.4508 6.024L68.4668 12.888L70.6268 6.048C70.6588 5.936 70.7308 5.824 70.8428 5.712C70.9708 5.584 71.1468 5.52 71.3708 5.52H72.9548C73.1788 5.52 73.3468 5.584 73.4588 5.712C73.5868 5.824 73.6668 5.936 73.6988 6.048L75.8588 12.888L77.8748 6.024C77.9068 5.912 77.9788 5.8 78.0908 5.688C78.2188 5.576 78.3868 5.52 78.5948 5.52H81.0668C81.2108 5.52 81.3308 5.576 81.4268 5.688C81.5388 5.784 81.5948 5.904 81.5948 6.048C81.5948 6.128 81.5868 6.208 81.5708 6.288L78.1148 17.4C78.0668 17.576 77.9788 17.72 77.8508 17.832C77.7388 17.944 77.5628 18 77.3228 18H75.1628C74.9388 18 74.7628 17.944 74.6348 17.832C74.5068 17.72 74.4188 17.576 74.3708 17.4L72.1628 10.824L69.9548 17.4C69.9068 17.576 69.8188 17.72 69.6908 17.832C69.5628 17.944 69.3868 18 69.1628 18H67.0028ZM86.8209 18.24C85.9569 18.24 85.1809 18.08 84.4929 17.76C83.8209 17.424 83.2849 16.976 82.8849 16.416C82.4849 15.856 82.2849 15.224 82.2849 14.52C82.2849 13.384 82.7489 12.488 83.6769 11.832C84.6049 11.16 85.8369 10.704 87.3729 10.464L90.3729 10.008V9.672C90.3729 9.096 90.2529 8.656 90.0129 8.352C89.7729 8.048 89.3329 7.896 88.6929 7.896C88.2449 7.896 87.8769 7.984 87.5889 8.16C87.3169 8.336 87.1009 8.576 86.9409 8.88C86.7969 9.088 86.5969 9.192 86.3409 9.192H83.6529C83.4769 9.192 83.3409 9.144 83.2449 9.048C83.1489 8.936 83.1089 8.808 83.1249 8.664C83.1249 8.376 83.2289 8.048 83.4369 7.68C83.6609 7.296 83.9969 6.92 84.4449 6.552C84.8929 6.184 85.4689 5.88 86.1729 5.64C86.8769 5.4 87.7249 5.28 88.7169 5.28C89.7569 5.28 90.6449 5.4 91.3809 5.64C92.1169 5.88 92.7089 6.216 93.1569 6.648C93.6209 7.08 93.9649 7.592 94.1889 8.184C94.4129 8.76 94.5249 9.4 94.5249 10.104V17.4C94.5249 17.576 94.4609 17.72 94.3329 17.832C94.2209 17.944 94.0849 18 93.9249 18H91.1409C90.9649 18 90.8209 17.944 90.7089 17.832C90.5969 17.72 90.5409 17.576 90.5409 17.4V16.56C90.3329 16.864 90.0529 17.144 89.7009 17.4C89.3489 17.656 88.9329 17.856 88.4529 18C87.9889 18.16 87.4449 18.24 86.8209 18.24ZM87.9489 15.504C88.4129 15.504 88.8289 15.408 89.1969 15.216C89.5809 15.008 89.8769 14.696 90.0849 14.28C90.3089 13.848 90.4209 13.312 90.4209 12.672V12.336L88.3809 12.696C87.6289 12.824 87.0769 13.024 86.7249 13.296C86.3889 13.552 86.2209 13.856 86.2209 14.208C86.2209 14.48 86.3009 14.712 86.4609 14.904C86.6209 15.096 86.8289 15.248 87.0849 15.36C87.3409 15.456 87.6289 15.504 87.9489 15.504ZM101.188 18C100.948 18 100.772 17.944 100.66 17.832C100.548 17.704 100.452 17.56 100.372 17.4L95.8363 6.264C95.8043 6.2 95.7883 6.128 95.7883 6.048C95.7883 5.904 95.8363 5.784 95.9323 5.688C96.0443 5.576 96.1803 5.52 96.3403 5.52H99.0523C99.2603 5.52 99.4203 5.576 99.5323 5.688C99.6443 5.8 99.7163 5.912 99.7483 6.024L102.46 13.392L105.196 6.024C105.228 5.912 105.3 5.8 105.412 5.688C105.524 5.576 105.684 5.52 105.892 5.52H108.604C108.748 5.52 108.876 5.576 108.988 5.688C109.1 5.784 109.156 5.904 109.156 6.048C109.156 6.128 109.14 6.2 109.108 6.264L104.572 17.4C104.508 17.56 104.412 17.704 104.284 17.832C104.172 17.944 103.988 18 103.732 18H101.188ZM116.18 18.24C114.292 18.24 112.788 17.728 111.668 16.704C110.548 15.68 109.964 14.16 109.916 12.144C109.916 12.032 109.916 11.888 109.916 11.712C109.916 11.536 109.916 11.4 109.916 11.304C109.964 10.04 110.244 8.96 110.756 8.064C111.284 7.152 112.004 6.464 112.916 6C113.844 5.52 114.924 5.28 116.156 5.28C117.564 5.28 118.724 5.56 119.636 6.12C120.564 6.68 121.26 7.44 121.724 8.4C122.188 9.36 122.42 10.456 122.42 11.688V12.264C122.42 12.44 122.356 12.584 122.228 12.696C122.116 12.808 121.98 12.864 121.82 12.864H114.14C114.14 12.88 114.14 12.904 114.14 12.936C114.14 12.968 114.14 13 114.14 13.032C114.156 13.496 114.236 13.92 114.38 14.304C114.524 14.688 114.748 14.992 115.052 15.216C115.356 15.44 115.724 15.552 116.156 15.552C116.476 15.552 116.74 15.504 116.948 15.408C117.172 15.296 117.356 15.176 117.5 15.048C117.644 14.904 117.756 14.784 117.836 14.688C117.98 14.528 118.092 14.432 118.172 14.4C118.268 14.352 118.412 14.328 118.604 14.328H121.58C121.74 14.328 121.868 14.376 121.964 14.472C122.076 14.552 122.124 14.672 122.108 14.832C122.092 15.104 121.956 15.432 121.7 15.816C121.444 16.2 121.068 16.584 120.572 16.968C120.092 17.336 119.484 17.64 118.748 17.88C118.012 18.12 117.156 18.24 116.18 18.24ZM114.14 10.488H118.196V10.44C118.196 9.928 118.116 9.48 117.956 9.096C117.812 8.712 117.58 8.416 117.26 8.208C116.956 8 116.588 7.896 116.156 7.896C115.724 7.896 115.356 8 115.052 8.208C114.764 8.416 114.54 8.712 114.38 9.096C114.22 9.48 114.14 9.928 114.14 10.44V10.488ZM125.016 18C124.84 18 124.696 17.944 124.584 17.832C124.472 17.72 124.416 17.576 124.416 17.4V14.352C124.416 14.192 124.472 14.056 124.584 13.944C124.696 13.816 124.84 13.752 125.016 13.752H128.04C128.216 13.752 128.36 13.816 128.472 13.944C128.6 14.056 128.664 14.192 128.664 14.352V17.4C128.664 17.576 128.6 17.72 128.472 17.832C128.36 17.944 128.216 18 128.04 18H125.016ZM131.823 18C131.647 18 131.503 17.944 131.391 17.832C131.279 17.72 131.223 17.576 131.223 17.4V6.12C131.223 5.944 131.279 5.8 131.391 5.688C131.503 5.576 131.647 5.52 131.823 5.52H134.655C134.815 5.52 134.951 5.576 135.063 5.688C135.191 5.8 135.255 5.944 135.255 6.12V17.4C135.255 17.576 135.191 17.72 135.063 17.832C134.951 17.944 134.815 18 134.655 18H131.823ZM131.799 3.72C131.623 3.72 131.479 3.664 131.367 3.552C131.255 3.44 131.199 3.296 131.199 3.12V0.983999C131.199 0.807999 131.255 0.663999 131.367 0.551999C131.479 0.423999 131.623 0.36 131.799 0.36H134.655C134.831 0.36 134.975 0.423999 135.087 0.551999C135.215 0.663999 135.279 0.807999 135.279 0.983999V3.12C135.279 3.296 135.215 3.44 135.087 3.552C134.975 3.664 134.831 3.72 134.655 3.72H131.799ZM143.838 18.24C142.494 18.24 141.358 18.024 140.43 17.592C139.518 17.16 138.814 16.544 138.318 15.744C137.838 14.928 137.566 13.96 137.502 12.84C137.486 12.52 137.478 12.16 137.478 11.76C137.478 11.344 137.486 10.984 137.502 10.68C137.566 9.544 137.854 8.576 138.366 7.776C138.878 6.976 139.59 6.36 140.502 5.928C141.43 5.496 142.542 5.28 143.838 5.28C145.15 5.28 146.262 5.496 147.174 5.928C148.102 6.36 148.822 6.976 149.334 7.776C149.846 8.576 150.134 9.544 150.198 10.68C150.214 10.984 150.222 11.344 150.222 11.76C150.222 12.16 150.214 12.52 150.198 12.84C150.134 13.96 149.854 14.928 149.358 15.744C148.878 16.544 148.174 17.16 147.246 17.592C146.334 18.024 145.198 18.24 143.838 18.24ZM143.838 15.312C144.558 15.312 145.078 15.096 145.398 14.664C145.734 14.232 145.926 13.584 145.974 12.72C145.99 12.48 145.998 12.16 145.998 11.76C145.998 11.36 145.99 11.04 145.974 10.8C145.926 9.952 145.734 9.312 145.398 8.88C145.078 8.432 144.558 8.208 143.838 8.208C143.134 8.208 142.614 8.432 142.278 8.88C141.942 9.312 141.758 9.952 141.726 10.8C141.71 11.04 141.702 11.36 141.702 11.76C141.702 12.16 141.71 12.48 141.726 12.72C141.758 13.584 141.942 14.232 142.278 14.664C142.614 15.096 143.134 15.312 143.838 15.312Z" fill="#161C2D"/>
</svg>
